<svg width="42" height="46" viewBox="0 0 42 46" fill="none" xmlns="http://www.w3.org/2000/svg">
<path d="M16.7741 30.9907H15.0522C13.9477 30.9907 13.0522 30.0953 13.0522 28.9907V23.0457C13.0522 22.5152 13.263 22.0065 13.638 21.6315L14.7552 20.5143C15.1303 20.1392 15.341 19.6305 15.341 19.1001V16.4954H17.2483V18.0212L19.2671 16.0023C20.0482 15.2213 21.3145 15.2213 22.0956 16.0023L27.7247 21.6315C28.0997 22.0065 28.3104 22.5152 28.3104 23.0457V28.9907C28.3104 30.0953 27.415 30.9907 26.3105 30.9907H24.5886C23.4841 30.9907 22.5886 30.0953 22.5886 28.9907V28.3205C22.5886 27.2672 21.7347 26.4132 20.6813 26.4132C19.628 26.4132 18.7741 27.2672 18.7741 28.3205V28.9907C18.7741 30.0953 17.8786 30.9907 16.7741 30.9907Z" fill="#60C1F8"/>
<circle cx="20.6813" cy="22.9799" r="16.6655" stroke="#22355D"/>
<circle cx="20.6812" cy="5.81455" r="4.81455" fill="#F8C301" stroke="white" stroke-width="2"/>
<circle cx="35.5469" cy="14.3973" r="4.81455" transform="rotate(60 35.5469 14.3973)" fill="#F8C301" stroke="white" stroke-width="2"/>
<circle cx="5.81551" cy="14.3972" r="4.81455" transform="rotate(-60 5.81551 14.3972)" fill="#F8C301" stroke="white" stroke-width="2"/>
<circle cx="20.6812" cy="40.1454" r="4.81455" fill="#F8C301" stroke="white" stroke-width="2"/>
<circle cx="5.81569" cy="31.5628" r="4.81455" transform="rotate(60 5.81569 31.5628)" fill="#F8C301" stroke="white" stroke-width="2"/>
<circle cx="35.5472" cy="31.5628" r="4.81455" transform="rotate(-60 35.5472 31.5628)" fill="#F8C301" stroke="white" stroke-width="2"/>
</svg>
