<svg width="30" height="28" viewBox="0 0 30 28" fill="none" xmlns="http://www.w3.org/2000/svg">
<rect x="0.406977" y="13.4302" width="9.11105" height="13.8898" stroke="#F8C301" stroke-width="0.813954"/>
<rect x="3.30835" y="15.2288" width="3.30834" height="3.30834" fill="#60C1F8"/>
<rect x="3.30835" y="22.0291" width="3.30834" height="3.30834" fill="#60C1F8"/>
<mask id="path-4-inside-1_156_756" fill="white">
<path fill-rule="evenodd" clip-rule="evenodd" d="M14.9896 3.64447C14.7921 3.43394 14.4578 3.43394 14.2603 3.64447L7.13806 11.2359C6.83851 11.5552 7.06489 12.078 7.5027 12.078H8.92727V27.6745H20.3226V12.078H21.7472C22.185 12.078 22.4114 11.5552 22.1119 11.2359L14.9896 3.64447Z"/>
</mask>
<path fill-rule="evenodd" clip-rule="evenodd" d="M14.9896 3.64447C14.7921 3.43394 14.4578 3.43394 14.2603 3.64447L7.13806 11.2359C6.83851 11.5552 7.06489 12.078 7.5027 12.078H8.92727V27.6745H20.3226V12.078H21.7472C22.185 12.078 22.4114 11.5552 22.1119 11.2359L14.9896 3.64447Z" fill="white"/>
<path d="M14.2603 3.64447L14.8539 4.20138V4.20138L14.2603 3.64447ZM14.9896 3.64447L14.396 4.20138V4.20138L14.9896 3.64447ZM7.13806 11.2359L6.54445 10.679H6.54445L7.13806 11.2359ZM8.92727 12.078H9.74122V11.2641H8.92727V12.078ZM8.92727 27.6745H8.11332V28.4885H8.92727V27.6745ZM20.3226 27.6745V28.4885H21.1366V27.6745H20.3226ZM20.3226 12.078V11.2641H19.5087V12.078H20.3226ZM22.1119 11.2359L21.5183 11.7928L21.5183 11.7928L22.1119 11.2359ZM14.8539 4.20138C14.7299 4.33357 14.52 4.33357 14.396 4.20138L15.5832 3.08755C15.0642 2.53431 14.1858 2.53431 13.6667 3.08755L14.8539 4.20138ZM7.73166 11.7928L14.8539 4.20138L13.6667 3.08755L6.54445 10.679L7.73166 11.7928ZM7.5027 11.2641C7.77761 11.2641 7.91975 11.5924 7.73166 11.7928L6.54445 10.679C5.75726 11.5181 6.35218 12.892 7.5027 12.892V11.2641ZM8.92727 11.2641H7.5027V12.892H8.92727V11.2641ZM9.74122 27.6745V12.078H8.11332V27.6745H9.74122ZM20.3226 26.8606H8.92727V28.4885H20.3226V26.8606ZM19.5087 12.078V27.6745H21.1366V12.078H19.5087ZM21.7472 11.2641H20.3226V12.892H21.7472V11.2641ZM21.5183 11.7928C21.3302 11.5924 21.4723 11.2641 21.7472 11.2641V12.892C22.8977 12.892 23.4927 11.5181 22.7055 10.679L21.5183 11.7928ZM14.396 4.20138L21.5183 11.7928L22.7055 10.679L15.5832 3.08755L14.396 4.20138Z" fill="#F8C301" mask="url(#path-4-inside-1_156_756)"/>
<circle cx="14.6512" cy="11.3952" r="2.03488" stroke="#60C1F8" stroke-width="0.813954"/>
<rect x="19.9419" y="13.3777" width="9.11105" height="13.8898" stroke="#F8C301" stroke-width="0.813954"/>
<rect x="22.8433" y="15.1763" width="3.30834" height="3.30834" fill="#60C1F8"/>
<rect x="22.8433" y="21.9768" width="3.30834" height="3.30834" fill="#60C1F8"/>
<rect x="11.8954" y="18.407" width="5.51163" height="7.95349" stroke="#60C1F8"/>
<rect x="11.8024" y="15.8721" width="5.69767" height="0.813953" stroke="#60C1F8" stroke-width="0.813953"/>
<path d="M16.6467 0.643287L14.7169 1.20039V0.0861842L16.6467 0.643287Z" fill="#FFBF00"/>
<rect x="14.4412" width="0.367593" height="3.49213" rx="0.183796" fill="#0C101A"/>
</svg>
