<svg width="36" height="29" viewBox="0 0 36 29" fill="none" xmlns="http://www.w3.org/2000/svg">
<rect y="13.5618" width="29.0222" height="1.35618" fill="#F8C301"/>
<path d="M23.3262 14.3755C23.3262 22.3148 19.3796 28.751 14.5111 28.751C9.6426 28.751 5.69592 22.3148 5.69592 14.3755C5.69592 6.43612 9.6426 0 14.5111 0C19.3796 0 23.3262 6.43612 23.3262 14.3755ZM6.65754 14.3755C6.65754 21.4488 10.1737 27.1828 14.5111 27.1828C18.8485 27.1828 22.3646 21.4488 22.3646 14.3755C22.3646 7.30221 18.8485 1.56818 14.5111 1.56818C10.1737 1.56818 6.65754 7.30221 6.65754 14.3755Z" fill="#F8C301"/>
<path d="M29.0222 14.3755C29.0222 22.3148 22.5254 28.751 14.5111 28.751C6.49684 28.751 0 22.3148 0 14.3755C0 6.43612 6.49684 0 14.5111 0C22.5254 0 29.0222 6.43612 29.0222 14.3755ZM1.27494 14.3755C1.27494 21.6173 7.20097 27.4879 14.5111 27.4879C21.8212 27.4879 27.7473 21.6173 27.7473 14.3755C27.7473 7.13368 21.8212 1.26303 14.5111 1.26303C7.20097 1.26303 1.27494 7.13368 1.27494 14.3755Z" fill="#F8C301"/>
<rect x="13.833" width="1.35618" height="28.751" fill="#F8C301"/>
<path d="M24.4112 5.01787C24.4112 7.33976 19.918 9.22202 14.3754 9.22202C8.83287 9.22202 4.33972 7.33976 4.33972 5.01787C4.33972 2.69598 8.83287 0.813721 14.3754 0.813721C19.918 0.813721 24.4112 2.69598 24.4112 5.01787ZM6.35116 5.01787C6.35116 6.87439 9.94375 8.37939 14.3754 8.37939C18.8071 8.37939 22.3997 6.87439 22.3997 5.01787C22.3997 3.16136 18.8071 1.65635 14.3754 1.65635C9.94375 1.65635 6.35116 3.16136 6.35116 5.01787Z" fill="#F8C301"/>
<path d="M24.4112 23.462C24.4112 25.9336 19.918 27.9373 14.3754 27.9373C8.83287 27.9373 4.33972 25.9336 4.33972 23.462C4.33972 20.9903 8.83287 18.9866 14.3754 18.9866C19.918 18.9866 24.4112 20.9903 24.4112 23.462ZM5.6331 23.462C5.6331 25.6151 9.54718 27.3606 14.3754 27.3606C19.2037 27.3606 23.1178 25.6151 23.1178 23.462C23.1178 21.3088 19.2037 19.5634 14.3754 19.5634C9.54718 19.5634 5.6331 21.3088 5.6331 23.462Z" fill="#F8C301"/>
<path d="M26.7648 27.3756L19.7884 14.0572C19.6965 13.8817 19.8685 13.685 20.0547 13.7525L34.3864 18.9525C34.5644 19.0171 34.5801 19.2628 34.4116 19.3495L30.3892 21.4181C30.2535 21.4879 30.2303 21.6723 30.3446 21.7735L34.6961 25.6278C34.7839 25.7055 34.794 25.839 34.719 25.9291L33.6407 27.223C33.5624 27.317 33.4218 27.3277 33.3302 27.2465L28.9856 23.3984C28.8721 23.2979 28.6931 23.3418 28.639 23.4834L27.1597 27.3524C27.0929 27.527 26.8515 27.5412 26.7648 27.3756Z" fill="#60C1F8" stroke="white" stroke-width="0.542471"/>
</svg>
